- 
http://www.Speed.Cd
 
http://www.Speed.Cd       the fast  and The Hottest Private Tracker on the net

Please Seed back to make the speed Faster!!
 ............ NFO .............
-[IMG]http://i.imgur.com/3DvwUAb.jpg[/IMG]

Source: ONLiNE
 
http://www.imdb.com/title/tt1935902/

When a couple discovers that a brass teapot makes them money whenever they hurt themselves, they must come to terms with how far they are willing to go.

General
Complete name                            : The Brass Teapot 2012 WEBRip x264 AAC-OFFLiNE.mp4
Format                                   : MPEG-4
Format profile                           : Base Media
Codec ID                                 : isom
File size                                : 700 MiB
Duration                                 : 1h 41mn
Overall bit rate mode                    : Variable
Overall bit rate                         : 965 Kbps
Encoded date                             : UTC 2013-03-03 17:35:57
Tagged date                              : UTC 2013-03-03 17:35:57

Video
ID                                       : 1
Format                                   : AVC
Format/Info                              : Advanced Video Codec
Format profile                           : High@L4.1
Format settings, CABAC                   : Yes
Format settings, ReFrames                : 3 frames
Codec ID                                 : avc1
Codec ID/Info                            : Advanced Video Coding
Duration                                 : 1h 41mn
Bit rate mode                            : Variable
Bit rate                                 : 840 Kbps
Maximum bit rate                         : 40.0 Mbps
Width                                    : 720 pixels
Height                                   : 304 pixels
Display aspect ratio                     : 2.35:1
Frame rate mode                          : Constant
Frame rate                               : 25.000 fps
Color space                              : YUV
Chroma subsampling                       : 4:2:0
Bit depth                                : 8 bits
Scan type                                : Progressive
Bits/(Pixel*Frame)                       : 0.154
Stream size                              : 609 MiB (87%)
Writing library                          : x264 core 130 r2273 b3065e6

Audio
ID                                       : 2
Format                                   : AAC
Format/Info                              : Advanced Audio Codec
Format profile                           : LC
Codec ID                                 : 40
Duration                                 : 1h 41mn
Bit rate mode                            : Variable
Bit rate                                 : 121 Kbps
Maximum bit rate                         : 147 Kbps
Channel(s)                               : 2 channels
Channel positions                        : Front: L R
Sampling rate                            : 44.1 KHz
Compression mode                         : Lossy
Stream size                              : 88.1 MiB (13%)
Language                                 : English
Encoded date                             : UTC 2013-03-03 16:17:55
Tagged date                              : UTC 2013-03-03 17:36:36

[IMG]http://i.imgur.com/S2DH1NZ.png[/IMG]
[IMG]http://i.imgur.com/dmkoHZW.png[/IMG]
[IMG]http://i.imgur.com/krBIgPs.png[/IMG]
[IMG]http://i.imgur.com/rfwWBSp.png[/IMG]
[IMG]http://i.imgur.com/GZEQpGY.png[/IMG]

Greets: To Our Friends